<svg width="477" height="384" viewBox="0 0 477 384" fill="none" xmlns="http://www.w3.org/2000/svg">
<path d="M168.133 13.2985C152.667 19.5651 143.6 40.6318 150.933 53.1651C159.2 66.8985 184 66.4985 200.133 52.2318C202.8 49.9651 205.067 48.4985 205.067 49.0318C205.067 50.3651 199.333 56.4985 188.133 67.2985C180 75.0318 175.6 82.2318 173.733 90.7651L172.8 95.2985L176.933 92.3651C179.2 90.7651 184.8 87.6985 189.467 85.5651C197.733 81.8318 198 81.5651 201.467 72.6318C212.133 44.8985 212.133 26.8985 201.467 17.2985C194.4 10.8985 178.8 9.03179 168.133 13.2985ZM183.067 18.8985C183.6 19.6985 184.4 19.9651 184.933 19.6985C185.467 19.2985 187.867 20.2318 190.267 21.6985C194.933 24.4985 200 34.4985 199.2 39.2985C198.8 40.8985 198.533 43.5651 198.533 45.1651C198.4 48.3651 193.067 54.6318 187.467 58.0985C184.267 60.2318 182.933 60.2318 176.133 58.7651C165.333 56.4985 163.867 55.5651 160.933 48.6318C158.133 41.9651 157.733 36.7651 159.867 31.2985C161.733 26.3651 167.6 20.2318 170.533 20.2318C171.867 20.2318 173.333 19.5651 173.733 18.8985C174.8 17.1651 182 17.1651 183.067 18.8985Z" fill="black"/>
<path d="M173.2 35.9651C172.267 37.8318 172.4 39.2984 173.867 41.4318C177.867 47.0318 187.867 42.3651 184.267 36.4984C182.133 33.1651 174.933 32.7651 173.2 35.9651Z" fill="black"/>
<path d="M229.733 23.6985C227.6 24.0985 222.533 24.8985 218.667 25.6985C212 27.0318 211.733 27.1652 212.667 30.6318C214.933 38.6318 213.6 52.6318 209.333 65.6985C206.933 72.7652 205.067 79.1652 205.067 79.9652C205.067 80.7652 208 82.2318 211.733 83.2985C218.133 85.1652 231.067 91.9652 230.133 92.8985C229.867 93.1652 227.2 92.6318 224.4 91.5652C221.467 90.4985 215.067 89.6985 210.267 89.5652C203.067 89.5652 200 90.3652 192.933 93.8318C172.667 103.832 144.8 141.298 137.733 168.098L136 174.898L140 172.098C142.133 170.498 144.533 167.698 145.333 165.698C147.733 159.298 153.067 148.898 155.733 145.565C158.267 142.232 158.267 142.365 155.733 149.298C154.267 153.165 153.067 157.832 153.067 159.565V162.898L158.133 160.365C170.8 153.965 192.533 151.032 209.733 153.565C230.533 156.498 235.467 156.632 241.6 154.365C246.667 152.498 247.333 151.698 246.667 148.898C246.4 147.032 246.667 144.765 247.467 143.832C248.4 142.765 248.267 141.432 246.933 139.698C244.4 136.098 244.533 133.032 247.6 130.365C251.6 126.765 256.133 128.098 257.867 133.298C259.067 137.165 259.467 137.432 260.933 135.698C263.467 132.632 264.667 133.032 269.733 138.098C277.067 145.032 275.467 153.565 267.067 153.565C264.533 153.565 262.4 154.232 262.4 154.898C262.4 155.698 260.933 156.898 259.2 157.698C256.667 158.898 255.333 158.765 253.067 157.165C250.533 155.432 249.733 155.432 246.667 157.032C244.667 158.098 242 158.898 240.8 158.898C236.4 158.898 237.333 161.165 243.6 165.965C249.2 170.365 250.933 170.898 257.6 170.898C261.733 170.898 267.067 171.698 269.467 172.632C273.733 174.498 280 182.232 281.6 187.832C282.133 189.432 283.867 190.898 285.467 191.165C287.6 191.432 288.533 192.898 289.333 196.632C290.667 202.765 292.667 206.898 294.533 206.898C295.333 206.898 294.933 205.565 293.867 203.965C291.067 199.965 291.2 189.698 294 185.565C295.333 183.698 296.133 181.298 296 180.098C295.6 177.832 299.2 173.965 300.533 175.298C300.933 175.565 302.667 174.498 304.4 172.765C308.4 168.765 311.067 168.765 315.067 172.765C316.933 174.632 319.733 176.232 321.333 176.498C323.6 176.765 324.533 177.965 324.8 180.498C325.067 182.632 326 184.232 326.933 184.232C327.867 184.232 330 185.698 331.6 187.432C334.4 190.365 334.533 191.565 333.733 198.765C333.067 205.032 332.267 207.032 330.267 207.565C328.933 208.098 327.333 208.098 326.8 207.832C326.133 207.432 325.733 209.832 325.6 213.032C325.467 220.898 321.2 225.565 314.267 225.565C311.467 225.565 308.8 225.032 308.4 224.232C307.867 223.432 306 224.098 303.867 225.698C300.4 228.232 299.6 228.365 296.267 226.632C294 225.565 292.267 223.565 292 221.832C291.6 219.432 291.2 219.032 289.733 220.232C287.733 221.965 282.4 220.898 282.4 218.765C282.4 218.098 280.667 215.965 278.4 213.965C273.733 209.832 273.067 204.232 276.933 200.365C279.867 197.432 279.867 197.432 270.4 195.565C263.733 194.232 258 190.365 254.133 184.632C247.867 175.298 238.4 167.032 228.267 161.965C219.6 157.832 216.667 157.032 206.8 156.498C185.2 155.298 168.133 161.965 152.267 177.565C136.4 193.165 130.133 210.498 133.067 230.765C133.733 235.432 134.4 239.432 134.667 239.565C134.933 239.832 136.8 238.632 138.8 236.765C142.4 233.698 142.4 233.432 140.4 229.698C137.467 223.832 137.867 217.032 141.467 213.032C144.667 209.298 153.867 204.898 154.8 206.632C155.2 207.165 155.867 210.898 156.4 214.898C157.067 220.765 156.667 223.298 154.667 227.165L152 232.232H158.4C161.867 232.232 166.533 231.298 168.667 230.232C172 228.632 173.467 228.498 176.533 229.698C178.667 230.632 181.333 231.165 182.667 231.032C183.867 230.898 185.2 231.432 185.733 232.232C186.133 232.898 187.867 233.565 189.333 233.565C191.067 233.565 195.867 237.432 201.733 243.432C216.133 258.232 227.467 262.898 248.8 262.898C264.4 262.898 278.8 258.765 302.667 247.565C340.667 229.565 365.2 222.632 390.4 222.632H404.667L406.533 211.165C414.667 158.765 395.467 105.032 354.8 66.7652C332.267 45.6985 306.933 32.4985 277.067 26.2318C267.2 24.0985 237.467 22.4985 229.733 23.6985ZM276 38.4985C284.4 41.6985 284.667 42.3652 280.267 47.0318C272.267 55.4318 264.8 56.8985 254.4 51.9652L248.4 49.1652L257.6 47.4318C262.667 46.4985 267.467 45.2985 268.267 44.8985C270.133 43.9652 258.8 45.2985 254.4 46.4985C251.2 47.2985 251.2 47.2985 253.2 44.2318C255.6 40.4985 263.2 36.2318 267.333 36.2318C268.933 36.2318 272.933 37.1652 276 38.4985ZM243.467 50.8985C247.467 52.8985 249.733 55.1652 251.733 59.1652C258.267 72.6318 247.467 88.6318 233.467 86.3652C220.133 84.2318 220.533 84.4985 216.667 76.4985C213.867 70.8985 213.733 69.5652 214.933 63.1652C216 58.0985 217.467 55.0318 220.133 52.7652C222.267 51.0318 224.4 49.8318 225.067 50.2318C225.6 50.6318 226.933 49.9652 227.867 48.7652C229.867 46.2318 235.333 47.0318 243.467 50.8985ZM301.067 59.6985C301.067 60.7652 300.4 61.2985 299.733 60.8985C298.933 60.3652 298.667 59.4318 299.067 58.7652C300.267 56.8985 301.067 57.2985 301.067 59.6985ZM293.733 76.2318C293.067 77.2985 292.267 77.2985 291.467 76.4985C290.667 75.6985 290.533 74.3652 291.067 73.5652C291.733 72.4985 292.533 72.4985 293.333 73.2985C294.133 74.0985 294.267 75.4318 293.733 76.2318ZM317.067 77.8318C317.067 79.9652 316.667 80.3652 315.6 79.2985C314.8 78.4985 314.533 77.1652 314.933 76.3652C316.4 74.0985 317.067 74.6318 317.067 77.8318ZM334.4 91.6985C334.4 92.7652 333.733 93.2985 333.067 92.8985C332.267 92.3652 332 91.4318 332.4 90.7652C333.6 88.8985 334.4 89.2985 334.4 91.6985ZM304.133 97.2985C303.2 97.5652 302.4 98.6318 302.4 99.6985C302.4 101.165 301.867 101.032 300.133 99.1652C298 97.1652 298 96.6318 299.733 94.8985C301.467 93.1652 302 93.1652 303.733 94.8985C305.333 96.3652 305.467 97.0318 304.133 97.2985ZM218.933 102.498C219.467 103.032 220.667 103.565 221.467 103.565C222.4 103.698 225.6 104.765 228.667 106.098C233.333 108.098 234.933 109.832 237.733 115.832C240.4 121.298 241.067 124.498 240.533 128.632C239.467 137.698 237.2 142.765 233.6 143.698C231.867 144.098 230.4 145.298 230.4 146.232C230.4 148.765 218.4 152.365 215.467 150.765C214.133 150.098 212.267 149.565 211.333 149.698C206.8 150.232 204.4 149.032 198.933 143.165C192 135.832 191.067 133.165 192.267 123.165C193.333 114.232 198.133 107.165 203.867 105.965C206 105.565 208.4 104.365 209.2 103.432C210.8 101.432 217.333 100.898 218.933 102.498ZM280.267 111.032C281.333 112.632 282.8 113.432 283.6 113.032C284.4 112.498 286.267 112.765 287.867 113.565C290 114.765 290.533 115.965 289.867 118.898C289.467 121.298 289.867 123.298 291.067 124.232C293.6 126.365 293.6 128.765 291.067 133.565C289.067 137.432 288.8 137.432 280.667 137.032C276.133 136.765 272 136.498 271.467 136.365C271.067 136.232 270.267 134.632 269.733 132.498C269.333 130.498 267.733 128.232 266.133 127.565C259.2 124.365 259.733 115.432 267.067 112.898C269.333 112.232 271.6 110.898 272.133 109.965C273.733 107.298 278 107.965 280.267 111.032ZM357.2 112.365C368.133 120.098 366.933 135.165 354.8 140.898C351.467 142.498 348.8 142.898 345.333 142.232L340.4 141.165L345.067 139.965C354.533 137.432 359.2 128.632 355.733 120.098C353.6 115.032 349.6 112.232 344.4 112.232C341.333 112.232 340.8 111.832 342.4 110.898C345.733 108.765 353.067 109.432 357.2 112.365ZM188.667 115.432C190 116.632 186.267 125.032 182.4 129.832C178.267 134.898 171.333 138.098 166.133 137.298C163.333 136.898 163.6 136.365 169.733 129.832C175.067 124.098 175.6 123.032 172.667 124.365C170.8 125.165 167.467 128.365 165.467 131.432L161.733 136.898L161.333 131.965C160.8 125.698 164 119.565 169.467 116.098C172.8 113.965 175.2 113.565 180.933 114.098C184.8 114.498 188.267 115.032 188.667 115.432ZM309.467 143.698C308.933 145.032 308.267 145.032 306.4 143.965C304.133 142.498 304.133 142.232 306.133 140.765C308.667 138.898 310.667 140.765 309.467 143.698ZM379.733 163.165C381.333 164.498 384.267 165.565 386.267 165.698C389.333 165.698 389.067 165.965 384.4 167.698C377.6 170.232 377.2 170.632 375.867 177.698C374.8 183.432 374.8 183.565 373.867 179.565C371.867 171.165 370.667 169.698 364.133 167.698C359.2 166.232 358.533 165.698 361.333 165.698C368.4 165.432 371.467 163.298 372.533 157.965C373.867 150.365 374.933 149.698 375.867 155.432C376.4 158.498 378 161.698 379.733 163.165ZM213.333 163.032C214.533 163.032 216.267 163.965 217.2 165.032C218 166.098 219.867 166.898 221.2 166.898C224.533 166.898 232.4 174.098 234 178.498C238 189.698 238.533 192.232 237.2 194.765C236.4 196.232 235.733 198.632 235.733 200.098C235.733 204.498 231.6 211.832 228.267 213.432C226.533 214.232 225.067 215.432 225.067 216.232C225.067 220.632 206.667 224.232 201.467 220.765C199.733 219.698 197.733 219.165 197.067 219.565C194.933 220.898 187.733 216.365 186 212.498C185.067 210.632 182.933 207.565 181.2 205.832C179.333 203.965 178.4 201.832 178.8 200.098C179.2 198.765 178.933 197.165 178.267 196.765C176.667 195.832 176.667 188.898 178.267 185.832C179.067 184.632 180 181.832 180.4 179.698C181.467 174.898 189.2 166.898 192.667 166.898C194.133 166.898 196.4 165.698 197.867 164.098C199.867 161.832 201.333 161.432 205.733 162.098C208.667 162.498 212.133 162.898 213.333 163.032ZM260.667 201.432C262.4 205.565 262.4 206.765 259.733 215.165C258 220.098 256.267 224.232 255.733 224.232C255.333 224.232 252.4 221.965 249.333 219.165C244.267 214.365 243.733 213.432 243.733 207.432C243.733 203.032 244.667 199.432 246.667 196.232L249.6 191.565L250.667 198.765C251.333 202.765 252.133 206.365 252.4 206.765C253.733 207.965 253.067 196.365 251.6 192.632L250.267 188.898L254.533 192.898C256.8 195.032 259.6 198.898 260.667 201.432ZM354.8 201.965C354.4 202.632 353.467 202.498 352.8 201.832C352 201.032 351.867 199.698 352.4 198.898C353.2 197.698 353.6 197.698 354.533 199.032C355.067 199.965 355.2 201.298 354.8 201.965ZM384.267 207.165C385.333 207.832 385.2 208.232 384.133 208.232C383.2 208.232 382.4 209.298 382.4 210.498C382.4 212.498 382.133 212.365 380 210.232C377.867 207.965 377.867 207.432 379.733 205.565C380.933 204.365 382 203.965 382.267 204.898C382.533 205.565 383.467 206.632 384.267 207.165ZM396.267 204.098C396.667 204.765 396.267 205.965 395.2 206.765C393.867 207.965 393.2 207.832 392.667 206.365C391.467 203.432 394.667 201.432 396.267 204.098ZM262.133 241.565C262.933 241.565 262.267 242.898 260.667 244.498C258 247.298 257.6 247.432 256.8 245.165C256.267 243.965 254.8 242.898 253.467 242.765C251.6 242.765 251.733 242.498 254.133 241.565C255.733 240.898 257.067 239.565 257.067 238.632C257.2 237.565 257.733 237.698 258.933 239.165C259.867 240.498 261.333 241.565 262.133 241.565Z" fill="black"/>
<path d="M230.667 63.6985C227.067 66.0985 226.933 68.4985 230.133 71.2985C233.067 73.9652 238 72.8985 239.067 69.4318C240.667 64.3652 235.067 60.4985 230.667 63.6985Z" fill="black"/>
<path d="M211.2 122.365C208.667 124.899 208.533 128.232 210.8 131.165C213.867 135.299 221.6 134.232 223.067 129.432C225.2 122.899 216 117.432 211.2 122.365Z" fill="black"/>
<path d="M201.867 186.099C197.6 190.232 197.467 194.899 201.467 198.632C205.733 202.632 210.933 202.365 214.4 197.965C218.933 192.232 216.267 185.299 208.8 183.565C206 182.899 204.4 183.432 201.867 186.099Z" fill="black"/>
<path d="M132.4 67.0318C118 81.0318 109.467 92.7651 100.8 110.232C92.8 126.098 88.4 138.765 85.0667 154.765C81.6 171.565 81.6 177.298 84.8 177.032C86 177.032 87.4667 176.365 87.8667 175.832C88.2667 175.298 90 174.632 91.4667 174.498C93.7334 174.365 94.4 173.432 94.4 170.898C94.4 166.765 100 160.898 102.8 161.965C103.867 162.365 105.6 165.298 106.667 168.365L108.533 174.098L113.6 164.898C116.4 159.832 119.867 154.232 121.2 152.498L123.6 149.298L116.8 145.698C107.333 140.898 104.667 135.832 105.6 123.832C106 118.898 106.667 114.365 107.067 113.565C108.533 111.165 122.667 122.365 125.867 128.498C126.933 130.498 127.733 134.632 127.733 137.832V143.565L130.8 138.898C132.4 136.365 139.467 128.365 146.533 120.898C160.267 106.632 161.867 104.232 167.2 89.2985C169.2 83.9651 172.133 77.4318 173.867 74.7651L176.933 69.9651L168.4 69.2985C158.533 68.4985 152.4 65.2985 148.133 59.0318L145.067 54.4985L132.4 67.0318ZM142.933 75.8318C143.467 76.4985 144.4 76.8985 144.8 77.0318C148.8 77.6985 154.667 81.0318 156.4 83.8318C157.733 85.6985 158.933 90.6318 159.333 94.7651C160 101.565 159.733 102.765 156.4 106.632C154.4 109.032 152 110.898 151.067 110.898C150.133 110.898 148.667 111.832 147.733 112.898C145.867 115.032 135.467 114.765 134.667 112.498C134.4 111.698 133.467 111.298 132.533 111.698C130.8 112.365 122.533 104.765 122.267 102.365C122.267 101.565 122 99.4318 121.6 97.6985C121.333 95.8318 122 91.5651 123.2 87.9651C124.933 82.4985 126.267 81.0318 131.467 78.3651C138 74.8985 141.333 74.2318 142.933 75.8318Z" fill="black"/>
<path d="M135.467 92.8985C133.6 97.1651 136.133 100.498 140.8 99.9651C145.733 99.2985 147.6 95.6985 144.533 92.3651C141.067 88.6318 137.333 88.8985 135.467 92.8985Z" fill="black"/>
<path d="M442.4 62.2318C441.067 67.1651 440.933 69.4318 442.133 72.7651C444 77.9651 444.267 92.6318 442.533 91.9651C441.733 91.6985 439.867 89.5651 438.133 87.0318C435.333 83.0318 424.133 75.2985 422.933 76.6318C422.533 76.8985 424.267 80.0985 426.667 83.6985C430.267 88.8985 432.267 90.4985 437.467 92.0985L443.733 94.0985V107.165C443.733 114.365 443.333 120.232 442.667 120.232C442.133 120.232 440.267 117.432 438.533 114.098C435.6 108.765 424.533 99.0318 422.933 100.498C422.667 100.898 424 104.365 426.133 108.365C429.2 114.498 430.8 116.098 436.8 118.765C442.8 121.565 443.733 122.632 443.733 125.832C443.733 129.298 443.333 129.565 438.533 129.565H433.333L431.2 138.232C429.867 143.832 429.067 152.498 429.067 163.298V179.832L434 187.298C436.667 191.432 439.2 194.632 439.467 194.365C439.733 194.098 438.267 189.832 436.267 184.898C432.933 176.232 432.8 175.032 433.333 158.365C433.733 148.765 434.667 139.165 435.6 137.165C436.933 133.565 437.333 133.432 445.333 133.832L453.733 134.232L455.333 140.898C456.267 144.498 457.467 153.565 457.867 160.898C458.667 173.965 458.667 174.498 454.533 184.098C452.133 189.432 450.533 194.098 450.933 194.498C451.333 194.898 454 191.432 456.933 186.898C462.267 178.765 462.4 178.098 462.4 167.032C462.4 155.298 461.067 144.898 458.4 135.032C456.933 129.698 456.8 129.565 451.067 129.565H445.067V102.365C445.067 87.5651 445.6 73.5651 446.4 71.4318C447.333 68.6318 447.2 65.8318 446 61.6985L444.133 55.8318L442.4 62.2318Z" fill="black"/>
<path d="M458.133 81.9652C454.933 84.3652 451.067 88.8985 449.333 91.8318L446.267 97.4318L450.533 96.2318C455.867 94.6318 460.533 90.3652 463.867 83.9652C468 75.8318 466.667 75.4318 458.133 81.9652Z" fill="black"/>
<path d="M37.6 93.5651C38 98.3651 38.6667 104.632 39.2 107.565L40 112.898L36.6667 108.232C33.7333 104.098 29.3333 100.232 24 97.0318C22.9333 96.3651 23.3333 98.4985 25.0667 103.165C26.8 107.698 29.8667 112.232 33.6 115.565C38.6667 120.232 39.2 121.298 38.2667 124.498C37.3333 128.232 37.3333 128.232 44 128.232H50.6667L50.1333 124.098C49.6 120.365 50.1333 119.432 55.8667 115.432C59.3333 112.898 63.0667 108.898 64.1334 106.498C67.7334 99.0318 69.0667 94.8985 67.8667 94.8985C65.0667 94.8985 53.0667 107.432 50.2667 113.165L47.0667 119.565L46.6667 115.165C46.4 112.765 46.8 107.698 47.6 104.098C50 93.0318 49.4667 90.6318 46 97.2985L42.9333 103.032L41.2 95.9651C38.4 84.7651 36.8 83.6985 37.6 93.5651Z" fill="black"/>
<path d="M114.4 128.632C114.4 130.898 119.6 139.698 122.533 142.232L125.467 144.898L122.533 139.565C119.067 133.298 114.533 127.165 114.4 128.632Z" fill="black"/>
<path d="M18.5333 136.098C22.9333 141.165 25.3333 142.632 34.1333 145.432L38.4 146.765L38.2667 141.832C38.1333 139.165 37.8667 137.832 37.4667 139.165C37.0667 141.032 36.4 140.898 33.4667 138.098C30.5333 135.298 19.3333 130.898 15.3333 130.898C14.6667 130.898 16.1333 133.298 18.5333 136.098Z" fill="black"/>
<path d="M40.1333 131.832C42.1333 132.099 45.3333 132.099 47.4667 131.832C49.4667 131.565 47.7333 131.299 43.7333 131.299C39.7333 131.299 38 131.565 40.1333 131.832Z" fill="black"/>
<path d="M67.2 136.899C62.9333 138.632 57.3333 142.099 54.8 144.365L50.4 148.765V143.165V137.565H45.2H39.8667L40.2667 156.765C40.6667 173.032 40.4 176.232 38.6667 176.899C37.6 177.299 36.5333 177.432 36.4 177.299C31.2 168.499 27.3333 162.899 26.9333 163.299C26.6667 163.565 27.0667 165.965 27.8667 168.632C30.1333 177.165 32.8 192.232 31.8667 192.099C31.4667 192.099 28.1333 187.432 24.4 181.965C20 175.299 14.6667 169.299 8.8 164.765L0 157.699L4.13333 166.899C9.33333 178.632 13.8667 184.232 23.8667 191.032C31.0667 195.832 31.7333 196.765 31.7333 201.165V205.965L28.4 202.499C26.5333 200.632 21.3333 197.299 17.0667 195.032L9.06667 191.032L11.2 195.299C14.8 202.499 21.2 208.099 28.2667 210.365C32 211.565 35.8667 213.299 36.9333 214.099C38.4 215.165 38.2667 214.499 36.6667 211.299C34.2667 206.765 33.6 195.565 35.6 194.232C36.2667 193.832 37.2 194.899 37.4667 196.499C37.8667 198.232 38 194.899 38 189.165C37.7333 180.765 38.1333 178.899 39.7333 178.899C41.4667 178.899 41.7333 180.365 40.9333 188.499C39.3333 203.299 39.6 214.632 41.2 215.699C42.2667 216.232 41.6 217.299 39.6 218.365L36.4 220.099L40.4 220.365L44.4 220.499L40.4 221.565C37.4667 222.365 37.2 222.632 39.2 222.765C40.8 222.765 43.8667 223.299 46.1333 223.699L50.2667 224.499L50.6667 216.899L51.0667 209.165L57.4667 207.565C64.1333 205.832 68 202.899 74.6667 194.632L78.5333 189.565L73.3333 191.432C65.4667 194.232 60.2667 197.165 55.0667 201.699C50 206.099 49.0667 205.032 51.8667 197.965C52.6667 195.965 54.5333 189.965 55.8667 184.899C58.2667 175.565 58.2667 175.565 55.7333 178.899C54.2667 180.765 52.5333 183.965 51.8667 186.232C50.9333 189.032 50.6667 184.499 50.8 171.032L51.0667 151.832L56.9333 150.099C62.8 148.365 68.4 143.965 73.3333 137.165C74.6667 135.165 75.7333 133.565 75.4667 133.565C75.2 133.565 71.4667 135.032 67.2 136.899Z" fill="black"/>
<path d="M119.6 175.032C116.4 179.832 107.733 197.298 107.733 198.898C107.733 199.698 111.733 200.232 117.733 200.232C123.2 200.232 127.733 199.698 127.733 199.165C127.733 198.498 126.8 194.765 125.6 190.765C124.4 186.765 123.067 180.898 122.533 177.698L121.733 171.698L119.6 175.032Z" fill="black"/>
<path d="M259.6 180.098C261.467 181.432 264.667 183.698 266.933 185.032L271.067 187.298L268.4 184.365C265.733 181.298 259.6 177.565 257.467 177.565C256.933 177.565 257.867 178.765 259.6 180.098Z" fill="black"/>
<path d="M84 184.232C80.4 190.232 83.0667 216.632 89.2 235.565C92.6667 245.832 100.933 265.298 99.0667 258.498C95.4667 245.565 94.1333 233.432 94.8 219.165C95.0667 210.632 95.8667 202.232 96.4 200.498C97.2 197.965 96.9333 197.565 93.8667 197.565C86.2667 197.565 82.1333 187.698 88 183.698C90.8 181.698 90.8 181.565 88.4 181.565C86.9333 181.565 84.9333 182.765 84 184.232Z" fill="black"/>
<path d="M304.133 190.498C299.733 191.032 295.6 195.165 295.867 198.898C295.867 200.632 296 200.632 296.667 198.898C298 195.165 301.467 192.232 304.533 192.232C306.267 192.232 308 191.565 308.4 190.898C308.8 190.098 309.067 189.698 308.8 189.832C308.533 189.832 306.4 190.232 304.133 190.498Z" fill="black"/>
<path d="M309.867 192.099C309.467 192.765 310 193.965 311.067 194.899C313.733 197.032 313.6 203.432 310.933 205.699C309.733 206.632 306.4 207.832 303.333 208.365L297.733 209.165L302.533 209.432C311.6 209.699 318.4 199.832 312.4 194.899C311.333 193.965 310.8 192.765 311.2 192.099C311.6 191.432 311.6 190.899 311.2 190.899C310.8 190.899 310.267 191.432 309.867 192.099Z" fill="black"/>
<path d="M315.733 195.565C317.467 197.432 319.2 198.898 319.467 198.898C319.867 198.898 318.8 197.432 317.067 195.565C315.333 193.698 313.6 192.232 313.333 192.232C312.933 192.232 314 193.698 315.733 195.565Z" fill="black"/>
<path d="M105.2 211.698C103.333 224.765 103.333 235.432 105.6 250.898C108 268.232 114 282.232 123.733 293.565C126.133 296.365 126.533 296.498 125.733 294.232C121.733 282.098 121.6 265.165 125.467 255.965C127.2 251.832 127.2 250.365 125.467 244.098C124.267 239.565 123.467 230.498 123.333 219.565C123.2 206.765 122.933 203.698 122.133 207.832C119.067 224.365 118.533 225.298 118.933 213.565L119.333 202.232L117.6 208.898C116 215.432 116 215.432 115.6 210.898C115.467 208.365 115.333 205.432 115.333 204.365C115.467 203.432 114.933 203.165 114.4 203.698C113.733 204.365 112.933 208.232 112.667 212.232L112.267 219.565L112 210.898C111.733 203.298 111.333 202.098 109.2 201.965C107.067 201.832 106.533 203.298 105.2 211.698Z" fill="black"/>
<path d="M446.667 214.899C451.733 215.299 456.133 216.099 456.533 216.499C456.933 217.032 453.733 217.032 449.467 216.632C445.2 216.232 439.6 216.632 437.067 217.432C433.2 218.632 434.667 218.765 446 218.499C460.133 218.232 462 219.165 452.667 221.699C446.267 223.565 442.133 223.432 436.133 221.432C430.933 219.832 430.533 217.965 434.8 216.232C437.733 215.032 437.733 215.032 434.933 215.032C430.133 214.899 428.533 218.365 428 231.032C427.467 241.832 427.733 243.565 431.067 250.232L434.533 257.565H444.267C455.2 257.565 457.333 256.232 460.533 247.299C462.267 242.099 463.067 224.632 461.6 219.299C460.533 215.565 454 213.565 444.4 213.699C438.133 213.965 438.267 213.965 446.667 214.899Z" fill="black"/>
<path d="M7.59998 223.698C10.1333 228.232 16.1333 235.565 21.8666 241.032C27.3333 246.232 31.7333 251.298 31.7333 252.232C31.7333 253.432 30.8 253.165 28.8 251.298C23.6 246.632 7.99998 239.965 9.86665 243.298C14.6666 251.698 21.8666 257.565 27.6 257.565C31.0666 257.565 36.8 260.232 37.4666 262.098C38.1333 264.098 37.4666 260.765 35.8666 254.232C35.0666 251.298 34 245.832 33.4666 242.232C32.5333 235.565 32.5333 235.565 31.7333 240.232C30.8 244.898 30.8 244.898 29.3333 241.565C24.9333 231.698 16.9333 223.165 7.19998 217.965L3.33331 215.965L7.59998 223.698Z" fill="black"/>
<path d="M145.867 224.365C144.8 229.965 145.867 231.032 147.067 225.565C147.6 223.299 147.733 221.032 147.333 220.765C147.067 220.365 146.4 222.099 145.867 224.365Z" fill="black"/>
<path d="M42.1334 226.498C43.7334 226.765 46.1334 226.765 47.4667 226.498C48.6667 226.098 47.3334 225.832 44.4 225.965C41.4667 225.965 40.4 226.232 42.1334 226.498Z" fill="black"/>
<path d="M37.0667 229.832C37.0667 230.499 37.7333 230.899 38.4 230.899C39.2 230.899 39.7333 239.165 39.7333 253.032C39.7333 267.299 39.3333 274.765 38.4 274.232C37.7333 273.832 37.0667 274.099 37.0667 274.765C37.0667 275.565 38 276.232 39.2 276.232C41.0667 276.232 41.3333 277.299 40.5333 282.365C40.1333 285.832 39.7333 295.165 39.7333 303.165C39.7333 312.499 39.2 317.432 38.4 316.899C37.7333 316.499 37.0667 316.765 37.0667 317.432C37.0667 318.232 37.8667 318.899 38.8 318.899C40 318.899 40.2667 322.365 40 332.765C39.6 345.699 39.7333 346.765 42.2667 348.232C44.2667 349.299 45.8667 349.299 47.7333 348.232C50.2667 346.899 50.4 345.432 50.4 327.032C50.4 312.765 50.9333 306.899 52.1333 305.832C52.9333 305.165 56.4 304.099 59.7333 303.565C67.3333 302.365 71.3333 300.232 76.2667 295.032L80.2667 290.899L73.6 291.699C66.8 292.632 57.0667 297.032 57.0667 299.432C57.0667 300.099 56.8 300.365 56.4 299.965C54.6667 298.365 57.8667 294.365 64.9333 289.699C74.4 283.165 75.7333 281.565 82.1333 269.965L87.4667 260.499L81.2 264.232C73.3333 269.165 64.9333 277.832 60.5333 285.565L57.0667 291.565L56.9333 286.232C56.9333 281.699 56.6667 281.299 55.7333 283.832C55.0667 285.565 54.1333 289.965 53.6 293.832C51.8667 307.699 50.4 304.899 50.8 288.232L51.0667 271.565L59.0667 267.165C63.8667 264.499 68.8 260.365 71.4667 256.765L75.8667 250.765L68 254.765C63.6 257.032 57.8667 261.299 55.0667 264.499L50.2667 270.232L50.4 261.565C50.5333 256.765 50.5333 247.299 50.5333 240.499L50.4 228.099L43.7333 228.499C40.1333 228.765 37.0667 229.299 37.0667 229.832Z" fill="black"/>
<path d="M150.667 236.232C143.733 237.832 136.8 244.232 132.4 252.898C128.8 260.232 128.4 262.099 128.4 274.232C128.4 289.965 132.133 302.498 139.333 310.898C143.867 316.232 158.8 327.565 166 331.432L170.133 333.432L166.133 326.098C163.333 320.898 162 316.365 161.6 310.498L161.067 302.232L163.067 309.432C166.933 322.898 176.533 335.965 186.133 340.898L190.667 343.032L185.333 335.965C182.4 332.098 179.333 327.432 178.4 325.565C176.4 321.698 177.467 322.632 184.267 331.032C186.933 334.498 191.6 338.898 194.533 340.898C200.133 344.898 220.267 350.898 227.067 350.765C230.667 350.765 230.8 350.632 228.533 349.165C221.733 344.898 217.067 339.432 212.533 330.498C207.867 321.298 207.6 320.098 207.6 308.098C207.6 301.165 207.867 288.098 208.4 278.898C209.067 265.698 208.8 261.165 207.2 256.898L205.2 251.565L205.067 256.232C204.933 258.765 204.667 261.432 204.4 262.232C204.267 262.898 204 264.632 204 265.832C203.6 269.698 194.4 278.898 190.933 278.898C189.333 278.898 187.467 279.565 187.067 280.365C186.533 281.165 184.267 281.565 181.867 281.432C179.6 281.165 176.933 281.432 176 282.098C175.067 282.632 172.4 282.499 170 281.699C167.733 280.899 164.267 279.965 162.4 279.699C158.8 278.899 156.8 277.298 150.8 269.698C148 266.232 147.2 263.565 146.8 257.032C146.267 249.298 146.533 248.232 151.067 241.832C153.6 237.965 155.6 234.898 155.467 235.032C155.2 235.165 153.067 235.698 150.667 236.232ZM205.733 282.498C205.333 287.565 204.667 294.232 204.267 297.565C203.6 304.232 200.4 307.432 194 307.698L190.133 307.965L194 305.565C196 304.365 198.8 302.098 200.133 300.632C202.133 298.232 202.267 297.832 200.533 297.165C199.333 296.632 196.267 297.298 193.6 298.365C190.933 299.432 188.4 300.098 188 299.698C187.6 299.298 187.867 298.898 188.533 298.898C189.333 298.898 191.067 297.965 192.533 296.898C194.933 295.165 194.933 295.032 191.733 295.698C189.067 296.232 189.333 295.832 193.333 293.298C196.133 291.565 198.4 289.698 198.4 289.165C198.4 288.498 197.733 288.498 197.067 288.898C194.533 290.498 187.733 292.098 188.4 290.898C188.8 290.365 186.8 290.098 184.133 290.498C181.333 290.765 176.4 290.232 173.067 289.165L167.067 287.165L176.4 287.032C187.067 286.765 194.4 284.098 200.4 277.832C202.667 275.565 204.933 273.565 205.6 273.565C206.133 273.565 206.267 277.565 205.733 282.498ZM201.733 312.232C200.4 313.698 198.8 314.898 198.133 314.898C196.8 314.898 201.333 309.832 202.933 309.698C203.6 309.565 203.067 310.765 201.733 312.232Z" fill="black"/>
<path d="M58.1333 240.632C54.5333 243.699 51.7333 248.232 51.7333 251.032C51.7333 253.699 57.0667 248.099 59.8667 242.499C61.3333 239.832 62.2667 237.565 62.1333 237.565C61.8667 237.565 60.1333 238.899 58.1333 240.632Z" fill="black"/>
<path d="M350 246.898C335.6 249.965 332.8 250.898 304.8 262.765C276.8 274.498 269.333 276.498 252.133 276.765C242.933 276.898 239.467 277.298 241.467 278.098C243.067 278.765 249.867 279.165 256.4 279.165C269.467 279.165 279.733 276.632 295.733 269.298C332.4 252.632 353.2 247.565 379.467 248.632C388.4 249.032 395.733 249.032 395.733 248.898C395.733 248.632 396.133 247.565 396.533 246.365C397.733 243.165 365.867 243.565 350 246.898Z" fill="black"/>
<path d="M169.733 251.565C165.867 255.298 165.6 257.165 168.533 261.298C171.467 265.565 180.267 265.432 183.067 261.032C186.533 255.698 181.867 248.232 175.067 248.232C173.867 248.232 171.467 249.698 169.733 251.565Z" fill="black"/>
<path d="M370.8 259.832C372.667 261.565 388.267 264.098 389.6 262.765C391.2 261.298 388.933 260.632 378.4 259.565C373.6 259.032 370.267 259.165 370.8 259.832Z" fill="black"/>
<path d="M213.6 264.899C214 266.365 215.2 271.965 216.4 277.165C222.8 305.432 252.933 322.365 285.067 315.699C292.267 314.232 301.467 310.499 317.733 302.365C342.667 289.965 353.867 285.965 368.267 284.765C377.333 283.965 381.067 282.499 381.067 280.099C381.067 278.365 366.133 278.765 350.933 280.899C337.2 282.765 312.8 289.965 300.267 295.565C290.667 299.965 276.133 304.232 271.2 304.099C267.6 304.099 268.133 303.699 274.4 301.699C278.4 300.499 290.8 294.899 301.733 289.299C322 279.165 338.8 272.365 344.133 272.099C345.733 272.099 346.4 271.699 345.467 271.432C341.467 269.699 327.067 274.232 310.4 282.365C284.933 294.899 279.2 296.632 263.067 296.632C254.4 296.632 247.867 295.965 244.4 294.632L239.067 292.632L249.6 293.299C262.933 294.099 276.667 291.699 288.133 286.632C293.067 284.365 296.933 282.365 296.667 282.099C296.533 281.832 291.867 283.032 286.4 284.499C272.8 288.365 247.6 288.632 237.467 285.165C229.467 282.365 219.467 274.099 215.6 267.032C214.133 264.365 213.333 263.432 213.6 264.899Z" fill="black"/>
<path d="M25.0667 277.698C25.0667 278.098 25.7333 280.498 26.5333 283.032C29.2 290.632 38.4 299.165 38.4 293.832C38.4 291.698 25.3333 275.698 25.0667 277.698Z" fill="black"/>
<path d="M211.867 292.499L211.733 305.299L218.8 311.565C227.733 319.565 247.6 328.765 263.867 332.365C273.067 334.499 281.2 335.299 294.4 335.299C317.6 335.432 325.333 333.699 336.933 325.832C342 322.365 346 319.432 345.867 319.299C345.6 319.032 337.467 319.832 327.6 320.899C293.867 324.632 256.667 322.765 242.4 316.499C228.533 310.499 220 301.565 214.933 287.832L211.867 279.565V292.499Z" fill="black"/>
<path d="M427.2 282.098C428.533 283.165 430.267 283.565 431.067 282.898C434.267 280.365 449.6 283.832 455.6 288.365L458.667 290.898L454.933 292.365C446.533 295.698 431.6 296.765 421.6 294.632L412 292.765L410.8 300.898L409.467 308.898L409.2 299.032C409.067 290.898 409.333 289.432 411.067 290.098C412.267 290.498 413.067 290.098 413.067 289.032C413.067 287.032 415.867 285.565 419.733 285.565C421.067 285.565 422.4 284.632 422.933 283.565C423.867 281.032 421.067 281.032 415.067 283.432C408.667 286.232 406.4 291.432 406.4 303.832C406.4 315.698 410.133 325.698 416.267 330.632L419.867 333.432L416.8 333.832C414.4 334.232 415.067 334.765 419.733 336.098C426.8 338.232 449.733 337.432 452.133 335.032C453.2 333.965 452.8 333.565 450.533 333.565C447.733 333.565 447.867 333.298 452.267 329.032C459.2 322.632 461.467 316.098 461.467 303.432C461.467 288.898 459.733 285.565 450.4 282.632C446.4 281.432 438.933 280.365 433.867 280.365C425.467 280.232 424.8 280.365 427.2 282.098ZM430.133 299.832C428.8 300.098 426.667 300.098 425.467 299.832C424.133 299.432 425.2 299.165 427.733 299.165C430.267 299.165 431.333 299.432 430.133 299.832Z" fill="black"/>
<path d="M357.733 290.898C348.4 292.898 341.067 295.832 324.4 304.098C312.667 309.965 300.667 315.698 297.733 316.898C292.533 318.898 292.8 318.898 307.067 318.232C315.2 317.832 328.8 316.498 337.467 315.298L353.333 313.165L363.867 301.698C369.6 295.432 374.4 289.832 374.4 289.298C374.4 287.832 371.333 288.098 357.733 290.898Z" fill="black"/>
<path d="M17.0667 300.099C17.0667 302.632 27.6 310.632 32.1333 311.432C34.9333 311.965 37.0666 313.032 37.0666 313.832C37.0666 314.632 37.4666 315.032 37.8666 314.499C38.2666 314.099 36.9333 311.565 34.8 308.899C29.8666 302.632 17.0667 296.232 17.0667 300.099Z" fill="black"/>
<path d="M213.067 316.898C213.067 317.432 214.8 321.565 217.067 326.232C221.6 335.832 229.6 343.832 239.867 349.032C246.8 352.498 247.6 352.632 261.733 351.698C269.733 351.298 280 350.098 284.4 349.165L292.4 347.432L287.067 346.498C284.133 345.965 279.6 345.565 276.933 345.565C268.8 345.565 246.933 339.298 237.333 334.232C232.267 331.565 224.8 326.365 220.533 322.765C216.4 319.032 213.067 316.365 213.067 316.898Z" fill="black"/>
</svg>
