<?xml version="1.0" standalone="no"?>
<!DOCTYPE svg PUBLIC "-//W3C//DTD SVG 20010904//EN"
 "http://www.w3.org/TR/2001/REC-SVG-20010904/DTD/svg10.dtd">
<svg version="1.0" xmlns="http://www.w3.org/2000/svg"
 width="1024.000000pt" height="1024.000000pt" viewBox="0 0 1024.000000 1024.000000"
 preserveAspectRatio="xMidYMid meet">

<g transform="translate(0.000000,1024.000000) scale(0.100000,-0.100000)"
fill="#000000" stroke="none">
<path d="M4440 8116 c0 -2 7 -7 16 -10 8 -3 12 -2 9 4 -6 10 -25 14 -25 6z"/>
<path d="M4520 7985 c14 -8 30 -14 35 -14 6 0 -1 6 -15 14 -14 8 -29 14 -35
14 -5 0 1 -6 15 -14z"/>
<path d="M4520 7895 c14 -8 30 -14 35 -14 6 0 -1 6 -15 14 -14 8 -29 14 -35
14 -5 0 1 -6 15 -14z"/>
<path d="M6404 7895 c-18 -13 -18 -14 4 -8 12 3 25 9 28 14 8 14 -10 11 -32
-6z"/>
<path d="M4865 7783 c-3 -26 -8 -56 -10 -65 -2 -10 1 -18 5 -18 9 0 25 118 17
127 -3 2 -8 -17 -12 -44z"/>
<path d="M6068 7783 c5 -21 7 -23 10 -9 2 10 0 22 -6 28 -6 6 -7 0 -4 -19z"/>
<path d="M4555 7771 c7 -13 165 -65 172 -57 6 6 -24 19 -112 47 -70 22 -68 22
-60 10z"/>
<path d="M6292 7748 c-46 -16 -81 -32 -79 -34 7 -7 165 45 172 56 9 15 -1 12
-93 -22z"/>
<path d="M6050 7725 c0 -5 5 -17 10 -25 5 -8 10 -10 10 -5 0 6 -5 17 -10 25
-5 8 -10 11 -10 5z"/>
<path d="M4031 7685 c-1 -5 8 -21 19 -35 11 -14 20 -20 20 -14 0 7 -9 22 -20
35 -10 13 -19 20 -19 14z"/>
<path d="M4877 7683 c-4 -3 -7 -11 -7 -17 0 -6 5 -5 12 2 6 6 9 14 7 17 -3 3
-9 2 -12 -2z"/>
<path d="M6000 7632 c0 -5 7 -15 15 -22 8 -7 15 -8 15 -2 0 5 -7 15 -15 22 -8
7 -15 8 -15 2z"/>
<path d="M4916 7604 c-4 -9 -4 -19 -1 -22 2 -3 7 3 11 12 4 9 4 19 1 22 -2 3
-7 -3 -11 -12z"/>
<path d="M4715 7549 c73 -40 147 -70 143 -58 -2 7 -35 25 -74 41 -91 37 -118
44 -69 17z"/>
<path d="M6182 7546 c-67 -22 -108 -44 -99 -53 2 -2 34 10 70 27 37 16 73 30
81 30 8 0 18 5 21 10 8 12 14 14 -73 -14z"/>
<path d="M4042 7488 c5 -13 48 -31 48 -20 0 4 -12 12 -26 19 -17 8 -24 8 -22
1z"/>
<path d="M6158 7484 c-70 -25 -94 -42 -114 -81 -10 -21 -22 -40 -25 -43 -7 -6
-33 -71 -35 -87 -4 -24 15 -13 43 24 28 36 35 63 20 74 -15 11 32 55 92 83 33
17 61 33 61 38 0 4 -1 7 -2 7 -2 -1 -20 -7 -40 -15z"/>
<path d="M4740 7486 c0 -4 59 -36 67 -36 13 0 -2 19 -22 28 -27 12 -45 15 -45
8z"/>
<path d="M4825 7463 c15 -16 55 -26 55 -14 0 6 -6 11 -14 11 -8 0 -23 3 -33 6
-12 5 -15 4 -8 -3z"/>
<path d="M4115 7450 c3 -5 13 -10 21 -10 8 0 12 5 9 10 -3 6 -13 10 -21 10 -8
0 -12 -4 -9 -10z"/>
<path d="M4813 7422 c10 -10 17 -23 17 -28 0 -6 18 -28 40 -49 22 -21 40 -33
40 -26 0 7 5 9 11 5 8 -4 7 -9 -2 -15 -11 -6 -6 -16 20 -43 19 -20 36 -34 38
-33 6 7 -71 156 -79 151 -4 -3 -5 1 -2 9 3 9 -9 19 -38 30 -56 22 -65 21 -45
-1z"/>
<path d="M4417 7423 c-11 -10 -8 -63 3 -63 6 0 10 16 10 35 0 36 -2 40 -13 28z"/>
<path d="M4487 7283 c-4 -3 -7 -20 -7 -37 0 -17 -4 -47 -10 -66 -11 -38 -3
-84 10 -59 8 15 24 169 18 169 -3 0 -8 -3 -11 -7z"/>
<path d="M4227 7134 c-4 -4 -7 -12 -7 -18 0 -6 4 -5 9 3 7 10 19 12 47 6 22
-5 43 -7 47 -6 5 1 5 -3 2 -9 -4 -6 -14 -8 -24 -5 -9 4 -26 8 -39 10 -18 2
-21 -1 -16 -17 7 -23 43 -63 84 -93 27 -20 36 -21 65 -12 32 9 46 30 28 39
-12 5 -53 66 -53 77 0 6 -8 14 -17 19 -23 11 -116 16 -126 6z m133 -34 c0 -5
-4 -10 -10 -10 -5 0 -10 5 -10 10 0 6 5 10 10 10 6 0 10 -4 10 -10z"/>
<path d="M4527 7100 c-3 -11 -1 -23 4 -26 5 -3 9 6 9 20 0 31 -6 34 -13 6z"/>
<path d="M4520 7014 c0 -9 5 -14 12 -12 18 6 21 28 4 28 -9 0 -16 -7 -16 -16z"/>
<path d="M6680 7013 c0 -15 -2 -16 -10 -3 -8 13 -10 12 -10 -3 0 -10 5 -28 11
-39 7 -12 7 -18 1 -14 -6 3 -13 0 -15 -6 -3 -7 -6 0 -6 15 -1 18 -6 27 -13 24
-7 -2 -18 5 -25 17 -10 19 -13 15 -27 -34 -15 -57 -33 -240 -23 -240 6 0 27
21 86 84 32 35 34 41 38 126 2 50 2 90 -1 90 -3 0 -6 -8 -6 -17z"/>
<path d="M5700 6965 c-11 -13 -10 -14 4 -9 9 3 16 10 16 15 0 13 -6 11 -20 -6z"/>
<path d="M4440 6955 c-16 -19 -12 -23 29 -31 l33 -7 -17 27 c-20 30 -28 32
-45 11z"/>
<path d="M6498 6934 c3 -17 0 -24 -9 -22 -20 5 -28 -76 -16 -164 7 -55 14 -78
24 -78 11 0 12 11 7 49 -9 67 -9 106 0 173 4 32 3 59 -2 62 -5 3 -7 -6 -4 -20z"/>
<path d="M5300 6941 c0 -5 15 -14 33 -19 17 -6 40 -13 50 -17 9 -4 17 -3 17 3
0 9 -30 24 -77 37 -13 4 -23 2 -23 -4z"/>
<path d="M5530 6905 c-16 -19 0 -19 26 0 16 12 16 14 3 15 -9 0 -22 -7 -29
-15z"/>
<path d="M5212 6905 c12 -12 198 -71 198 -63 0 5 -6 10 -12 12 -7 2 -49 16
-94 30 -81 26 -102 31 -92 21z"/>
<path d="M5592 6871 c-29 -10 -59 -24 -65 -31 -7 -7 5 -5 28 5 22 9 55 21 73
27 17 5 32 11 32 13 0 8 -12 5 -68 -14z"/>
<path d="M5220 6846 c0 -8 64 -36 80 -36 19 0 2 17 -22 23 -13 2 -31 8 -40 12
-10 4 -18 4 -18 1z"/>
<path d="M5650 6794 l-25 -15 25 7 c14 3 32 10 40 15 13 7 13 8 0 8 -8 0 -26
-6 -40 -15z"/>
<path d="M6944 6786 c-3 -8 -19 -18 -36 -21 -19 -5 -26 -11 -21 -16 6 -6 59
-7 129 -3 104 6 120 9 121 24 2 22 -33 30 -124 30 -46 0 -65 -4 -69 -14z"/>
<path d="M5230 6781 c0 -5 21 -17 48 -26 26 -9 62 -23 80 -31 38 -16 42 -17
42 -5 0 5 -8 11 -17 14 -10 3 -48 17 -85 31 -38 14 -68 22 -68 17z"/>
<path d="M3502 6756 c-22 -13 -20 -14 33 -21 61 -7 68 -6 56 13 -11 18 -63 23
-89 8z"/>
<path d="M5546 6762 c-3 -5 8 -6 25 -4 16 2 29 6 29 8 0 8 -49 4 -54 -4z"/>
<path d="M5591 6736 c-36 -12 -67 -28 -69 -34 -2 -7 1 -12 6 -12 14 0 142 58
142 65 0 8 -9 6 -79 -19z"/>
<path d="M5243 6734 c12 -12 157 -64 157 -55 0 4 -28 17 -62 28 -35 12 -72 25
-83 29 -11 4 -17 3 -12 -2z"/>
<path d="M6725 6733 c-27 -7 -165 -123 -165 -138 0 -26 237 -43 341 -24 76 13
135 38 94 40 -20 0 -20 1 0 9 19 8 19 9 -2 9 -13 1 -22 4 -21 9 2 4 -9 19 -22
34 -14 14 -31 33 -38 42 -9 12 -30 16 -77 16 -35 0 -69 2 -77 4 -7 2 -22 1
-33 -1z m250 -141 c-3 -3 -11 0 -18 7 -9 10 -8 11 6 5 10 -3 15 -9 12 -12z"/>
<path d="M5612 6695 c-35 -13 -66 -26 -69 -29 -13 -13 27 -5 78 16 60 24 64
26 58 32 -2 2 -32 -6 -67 -19z"/>
<path d="M5250 6696 c0 -7 21 -23 48 -35 26 -12 60 -29 75 -38 16 -8 31 -12
34 -9 7 7 -16 36 -28 36 -5 0 -36 13 -69 29 -39 19 -60 25 -60 17z"/>
<path d="M5956 6684 c-3 -8 1 -22 9 -30 8 -9 15 -12 15 -7 0 4 5 1 10 -7 7
-11 10 -8 10 16 0 20 -6 34 -16 38 -21 8 -21 8 -28 -10z"/>
<path d="M5605 6662 c-90 -22 -89 -22 -79 -32 9 -9 104 17 141 39 23 13 13 12
-62 -7z"/>
<path d="M5260 6647 c0 -13 37 -35 104 -61 45 -19 49 -19 44 -6 -5 16 -148 81
-148 67z"/>
<path d="M6045 6639 c-4 -6 -5 -12 -2 -15 2 -3 7 2 10 11 7 17 1 20 -8 4z"/>
<path d="M5578 6616 c-32 -11 -58 -27 -58 -34 0 -14 36 -8 55 9 5 5 15 9 22 9
7 0 27 9 45 20 44 26 13 25 -64 -4z"/>
<path d="M7038 6613 c7 -3 16 -2 19 1 4 3 -2 6 -13 5 -11 0 -14 -3 -6 -6z"/>
<path d="M4136 6552 c-4 -34 -4 -68 1 -75 11 -18 21 56 13 101 -6 35 -6 34
-14 -26z"/>
<path d="M4061 6573 c-12 -27 -13 -27 -27 -8 -8 10 -14 14 -14 8 0 -14 25 -34
33 -26 4 3 13 0 22 -7 13 -11 15 -8 15 24 0 43 -12 46 -29 9z"/>
<path d="M5270 6587 c0 -7 5 -30 11 -52 9 -37 13 -60 17 -107 3 -28 31 -48 68
-48 43 0 53 22 46 100 l-5 55 -68 32 c-42 20 -69 27 -69 20z m67 -113 c-3 -3
-12 -4 -19 -1 -8 3 -5 6 6 6 11 1 17 -2 13 -5z"/>
<path d="M3475 6580 c-7 -11 12 -16 118 -30 114 -15 133 -13 133 9 0 16 -11
19 -66 25 -96 9 -178 7 -185 -4z"/>
<path d="M5635 6574 c-10 -8 -30 -14 -44 -14 -68 0 -71 -5 -71 -96 l0 -84 44
0 c52 0 65 13 69 66 1 22 5 41 9 44 10 8 27 89 19 94 -3 2 -15 -2 -26 -10z"/>
<path d="M5914 6555 c-7 -18 3 -35 22 -35 8 0 14 10 14 25 0 27 -27 35 -36 10z"/>
<path d="M4830 6494 c0 -13 57 -30 68 -20 10 11 -16 29 -43 31 -14 0 -25 -5
-25 -11z"/>
<path d="M3947 6489 c7 -7 15 -10 18 -7 3 3 -2 9 -12 12 -14 6 -15 5 -6 -5z"/>
<path d="M5010 6446 c-24 -27 -21 -60 5 -50 14 6 45 53 45 69 0 14 -29 3 -50
-19z"/>
<path d="M3970 6433 c5 -2 8 -9 4 -14 -3 -5 0 -9 6 -9 15 0 7 23 -8 26 -7 1
-8 0 -2 -3z"/>
<path d="M4479 6408 c-7 -28 -3 -44 11 -44 19 0 20 38 2 44 -7 2 -12 2 -13 0z"/>
<path d="M4872 6393 c4 -23 78 -32 78 -10 0 15 -28 27 -63 27 -12 0 -17 -6
-15 -17z"/>
<path d="M4520 6349 c0 -5 5 -7 10 -4 6 3 10 8 10 11 0 2 -4 4 -10 4 -5 0 -10
-5 -10 -11z"/>
<path d="M4530 6172 c0 -4 6 -14 13 -21 10 -10 9 -12 -2 -9 -7 2 -15 -2 -18
-9 -2 -7 4 -11 16 -10 19 1 35 32 25 49 -7 10 -34 11 -34 0z"/>
<path d="M7327 6113 c6 -15 4 -16 -9 -5 -13 10 -19 10 -31 -2 -8 -8 -18 -12
-22 -8 -5 4 -5 -1 -2 -11 4 -10 7 -20 7 -23 0 -10 76 -34 120 -38 26 -3 58 -7
71 -9 13 -2 18 -2 12 0 -23 8 -14 26 10 19 23 -7 58 -10 92 -6 11 1 2 6 -20
11 -76 17 -150 43 -192 66 -37 20 -42 21 -36 6z"/>
<path d="M5885 6111 c-24 -10 -62 -51 -47 -51 19 0 72 35 72 48 0 6 -1 12 -2
11 -2 0 -12 -4 -23 -8z"/>
<path d="M3673 6103 c9 -2 25 -2 35 0 9 3 1 5 -18 5 -19 0 -27 -2 -17 -5z"/>
<path d="M4434 6095 c-4 -8 -3 -22 0 -30 4 -13 10 -14 26 -5 16 9 18 15 10 30
-13 24 -28 26 -36 5z"/>
<path d="M3673 6073 c-28 -11 -10 -18 37 -15 27 2 50 8 50 13 0 9 -66 11 -87
2z"/>
<path d="M7670 6050 c-8 -5 -10 -10 -5 -10 6 0 17 5 25 10 8 5 11 10 5 10 -5
0 -17 -5 -25 -10z"/>
<path d="M7161 6026 c-14 -17 5 -26 54 -26 43 0 54 17 20 30 -36 14 -60 13
-74 -4z"/>
<path d="M3836 5985 c-4 -16 -15 -39 -24 -50 -9 -11 -4 -8 12 6 19 18 27 34
24 50 -3 23 -4 22 -12 -6z"/>
<path d="M7660 5995 c0 -8 5 -15 10 -15 6 0 10 7 10 15 0 8 -4 15 -10 15 -5 0
-10 -7 -10 -15z"/>
<path d="M5971 5713 c-1 -42 3 -54 18 -62 18 -10 18 -9 6 32 -7 23 -15 51 -18
62 -2 11 -5 -3 -6 -32z"/>
<path d="M5457 5649 c7 -7 15 -10 18 -7 3 3 -2 9 -12 12 -14 6 -15 5 -6 -5z"/>
<path d="M5440 5636 c0 -2 8 -10 18 -17 15 -13 16 -12 3 4 -13 16 -21 21 -21
13z"/>
<path d="M5264 5619 c-3 -6 -1 -16 6 -22 10 -9 11 -9 6 1 -4 6 -4 12 1 12 10
0 40 -19 33 -21 -21 -4 -39 -8 -60 -17 -24 -9 -23 -10 15 -17 22 -4 55 -11 73
-15 62 -16 84 8 27 29 -19 7 -40 21 -45 32 -6 11 -15 17 -21 14 -5 -4 -9 -1
-9 4 0 14 -17 14 -26 0z"/>
<path d="M7241 5584 c0 -12 -10 -33 -22 -48 -11 -14 -16 -26 -11 -26 17 0 43
50 39 73 -4 22 -4 22 -6 1z"/>
<path d="M5022 5583 c1 -4 -3 -18 -10 -30 -7 -13 -9 -24 -5 -24 4 -1 -5 -5
-22 -9 l-30 -8 28 -1 c15 0 27 -5 27 -11 0 -12 100 -13 118 -1 10 6 3 16 -27
40 -22 18 -45 30 -51 26 -6 -4 -9 -1 -8 6 2 6 -3 14 -10 16 -7 3 -12 1 -10 -4z"/>
<path d="M7155 5549 c-4 -6 -17 -14 -29 -19 -15 -6 -16 -9 -5 -9 9 -1 27 8 40
19 13 10 19 19 12 20 -6 0 -15 -5 -18 -11z"/>
<path d="M6980 5546 c0 -18 31 -64 47 -71 57 -23 79 -25 125 -9 26 8 51 20 55
26 4 8 0 9 -13 4 -10 -5 -28 -10 -39 -13 -17 -4 -18 -3 -5 7 12 9 8 10 -17 5
-47 -9 -99 4 -128 32 -14 14 -25 23 -25 19z"/>
<path d="M6106 5504 c-4 -11 -1 -12 13 -5 10 6 20 9 22 8 2 -1 3 0 1 2 -7 11
-31 8 -36 -5z"/>
<path d="M4968 5493 c6 -2 18 -2 25 0 6 3 1 5 -13 5 -14 0 -19 -2 -12 -5z"/>
<path d="M6123 5477 c-3 -6 -1 -7 5 -3 5 3 12 1 14 -6 3 -8 6 -7 10 3 7 17
-19 22 -29 6z"/>
<path d="M6220 5460 c0 -11 7 -20 15 -20 8 0 15 5 15 10 0 7 6 7 19 0 11 -5
28 -10 38 -10 10 0 -2 9 -26 20 -54 25 -61 25 -61 0z"/>
<path d="M6186 5431 c-12 -18 83 -74 104 -61 8 5 17 7 21 4 4 -2 2 7 -4 21 -9
18 -13 20 -15 9 -3 -13 -6 -13 -20 -2 -10 8 -13 9 -9 1 4 -6 3 -14 -2 -17 -5
-3 -12 1 -15 10 -4 9 -9 14 -13 11 -3 -4 -15 -1 -26 4 -16 9 -17 13 -6 20 9 6
10 9 2 9 -6 0 -14 -4 -17 -9z"/>
<path d="M6457 5354 c3 -8 12 -13 20 -10 8 3 11 1 8 -4 -3 -6 -25 -10 -47 -10
-23 0 -39 -2 -36 -6 12 -11 150 -6 161 6 9 10 9 11 0 6 -9 -5 -11 -2 -7 8 3 8
11 13 18 10 7 -3 23 0 37 5 23 9 23 10 -9 10 -18 1 -42 -4 -52 -9 -13 -7 -21
-7 -25 0 -3 5 -22 10 -40 10 -27 0 -33 -3 -28 -16z"/>
<path d="M6400 5350 c0 -6 7 -10 15 -10 8 0 15 2 15 4 0 2 -7 6 -15 10 -8 3
-15 1 -15 -4z"/>
<path d="M6358 5333 c6 -2 18 -2 25 0 6 3 1 5 -13 5 -14 0 -19 -2 -12 -5z"/>
<path d="M6190 5220 c20 -13 50 -13 50 0 0 6 -15 10 -32 10 -25 0 -29 -3 -18
-10z"/>
<path d="M6199 5178 c23 -6 37 -6 44 1 8 8 -2 11 -33 10 l-45 -1 34 -10z"/>
<path d="M6145 5120 c-8 -13 9 -20 24 -11 10 6 9 10 -3 14 -8 3 -18 2 -21 -3z"/>
<path d="M4958 5053 c6 -2 18 -2 25 0 6 3 1 5 -13 5 -14 0 -19 -2 -12 -5z"/>
<path d="M4098 4983 c-10 -2 -18 -9 -18 -14 0 -6 5 -7 11 -3 6 3 43 10 82 14
l72 7 -65 0 c-36 1 -73 -1 -82 -4z"/>
<path d="M5350 4912 c0 -12 19 -26 26 -19 2 2 -2 10 -11 17 -9 8 -15 8 -15 2z"/>
<path d="M4506 4830 c-21 -27 -42 -50 -46 -50 -5 0 -15 -6 -22 -12 -7 -7 -25
-19 -40 -27 -15 -8 -25 -18 -22 -22 8 -14 99 37 128 72 32 38 60 89 48 89 -4
0 -25 -22 -46 -50z"/>
<path d="M4320 4764 l-25 -15 25 7 c14 3 29 10 35 15 15 14 -7 10 -35 -7z"/>
<path d="M6547 4742 c-24 -26 -21 -34 11 -30 19 2 27 9 27 22 0 27 -18 30 -38
8z"/>
<path d="M4434 4714 c-18 -14 -18 -15 4 -4 12 6 22 13 22 15 0 8 -5 6 -26 -11z"/>
<path d="M3680 4654 c0 -22 3 -24 23 -19 37 12 40 22 8 33 -29 10 -31 10 -31
-14z"/>
<path d="M3375 4610 c3 -5 8 -10 11 -10 2 0 4 5 4 10 0 6 -5 10 -11 10 -5 0
-7 -4 -4 -10z"/>
<path d="M6290 4520 c-19 -11 -31 -19 -27 -20 12 0 77 28 77 34 0 10 -14 6
-50 -14z"/>
<path d="M3205 4426 c43 -35 201 -59 363 -54 62 2 112 1 112 -2 0 -3 10 -16
21 -30 11 -14 18 -20 15 -13 -4 6 0 15 7 20 22 14 58 71 48 78 -5 3 -19 -5
-31 -17 -14 -15 -20 -18 -18 -8 2 11 -5 14 -27 13 -123 -10 -397 2 -480 21
-29 7 -29 7 -10 -8z"/>
<path d="M6058 4414 c-39 -21 -35 -28 5 -8 37 19 44 24 31 24 -5 -1 -21 -8
-36 -16z"/>
<path d="M6555 4353 c-71 -36 -141 -73 -155 -83 -14 -10 -62 -36 -107 -59 -46
-23 -83 -44 -83 -47 0 -2 75 34 168 82 92 47 202 104 245 125 69 35 91 50 70
49 -5 -1 -66 -30 -138 -67z"/>
<path d="M5515 4160 c-3 -6 1 -7 9 -4 18 7 21 14 7 14 -6 0 -13 -4 -16 -10z"/>
<path d="M5470 4143 c-27 -10 -200 -96 -200 -99 0 -6 94 33 136 56 21 11 43
20 49 20 5 0 19 7 29 15 20 15 14 18 -14 8z"/>
<path d="M6110 4120 c-9 -6 -10 -10 -3 -10 6 0 15 5 18 10 8 12 4 12 -15 0z"/>
<path d="M6040 4085 c-25 -13 -41 -24 -37 -25 11 0 87 39 87 45 0 7 0 7 -50
-20z"/>
<path d="M5190 4010 c-9 -6 -10 -10 -3 -10 6 0 15 5 18 10 8 12 4 12 -15 0z"/>
<path d="M5874 4004 c-18 -14 -18 -14 6 -3 31 14 36 19 24 19 -6 0 -19 -7 -30
-16z"/>
<path d="M5105 3975 c-25 -12 -26 -14 -5 -9 28 7 60 23 45 23 -5 0 -23 -6 -40
-14z"/>
<path d="M5814 3974 c-18 -14 -18 -14 6 -3 31 14 36 19 24 19 -6 0 -19 -7 -30
-16z"/>
<path d="M4940 3906 c-47 -18 -184 -79 -305 -135 -121 -57 -243 -111 -271
-121 -28 -10 -59 -23 -70 -28 -22 -12 -169 -76 -231 -100 -41 -15 -57 -42 -34
-56 13 -8 210 97 204 108 -4 5 -1 6 5 2 6 -4 28 4 49 17 21 13 58 31 83 41 25
10 50 21 55 26 6 4 60 29 120 55 61 26 137 60 170 75 99 46 146 67 235 105 46
20 86 38 89 41 10 10 -19 1 -99 -30z"/>
<path d="M5706 3925 c-11 -8 -16 -15 -10 -15 5 0 18 7 28 15 11 8 16 15 10 15
-5 0 -18 -7 -28 -15z"/>
<path d="M5530 3845 c-33 -19 -21 -19 21 0 19 8 27 14 19 14 -8 0 -26 -6 -40
-14z"/>
<path d="M5460 3818 c-14 -6 -86 -40 -160 -76 -255 -123 -665 -316 -787 -372
-40 -18 -73 -39 -73 -46 0 -15 12 -18 24 -6 4 4 11 7 14 7 20 2 52 18 52 26 0
5 9 9 19 9 11 0 26 6 33 13 7 7 41 23 76 36 34 13 73 31 85 40 12 10 49 29 82
44 94 42 681 336 670 336 -5 0 -21 -5 -35 -11z"/>
</g>
</svg>
